<svg xmlns="http://www.w3.org/2000/svg" viewBox="0 0 512 512" role="img" aria-label="Sowetamu Sacco">
  <rect width="512" height="512" rx="104" fill="#052e2b"/>
  <path d="M114 184c0-35 28-64 64-64h156c35 0 64 29 64 64v142c0 18-14 32-32 32H146c-18 0-32-14-32-32V184Z" fill="#10b981"/>
  <path d="M155 184h202l-24-38H179l-24 38Z" fill="#d1fae5"/>
  <rect x="151" y="211" width="210" height="74" rx="16" fill="#ecfdf5"/>
  <circle cx="176" cy="339" r="31" fill="#022c22" stroke="#d1fae5" stroke-width="12"/>
  <circle cx="336" cy="339" r="31" fill="#022c22" stroke="#d1fae5" stroke-width="12"/>
  <path d="M195 311h122" stroke="#047857" stroke-width="18" stroke-linecap="round"/>
  <path d="M218 227h76l-38 54Z" fill="#059669"/>
  <text x="256" y="437" text-anchor="middle" font-family="Arial, sans-serif" font-size="46" font-weight="800" fill="#ecfdf5">SACCO</text>
</svg>
